<?xml version="1.0" encoding="UTF-8"?>
<svg width="225px" viewBox="0 0 456 586" version="1.1" xmlns="http://www.w3.org/2000/svg" xmlns:xlink="http://www.w3.org/1999/xlink">
    <title>1 copy 59</title>
    <g id="1-copy-59" stroke="none" stroke-width="1" fill="none" fill-rule="evenodd">
        <rect fill="#FFFFFF" x="0" y="0" width="456" height="586"></rect>
        <g id="编组" transform="translate(-64.000000, 0.000000)">
            <path d="M502.717,614.591 L111.874,614.591 C50.343,614.591 0,564.248 0,502.717 L0,111.874 C0,50.343 50.343,0 111.874,0 L502.717,0 C564.248,0 614.591,50.343 614.591,111.874 L614.591,502.717 C614.591,564.248 564.248,614.591 502.717,614.591" id="Fill-1" fill="#FFFFFF"></path>
            <polygon id="Fill-3" fill="#97D700" points="338.5666 210.3761 422.8026 252.9821 474.6256 326.6991 460.1226 439.8811 400.9016 509.1581 311.0046 536.0591 237.8556 518.8241 185.3316 490.7151 153.8706 418.1721 147.3826 339.6171 147.3826 269.7011 147.3826 138.2561 173.7416 103.9891 238.4836 83.4761 271.7246 92.3721 311.0046 208.8161"></polygon>
            <path d="M474.6252,372.4376 C474.6252,462.8026 401.3702,536.0586 311.0042,536.0586 C220.6392,536.0586 147.3832,462.8026 147.3832,372.4376 C147.3832,282.0726 220.6392,208.8166 311.0042,208.8166 C401.3702,208.8166 474.6252,282.0726 474.6252,372.4376 Z" id="Stroke-5" stroke="#FFFFFF" stroke-width="19"></path>
            <path d="M147.384,372.4396 C147.384,309.6006 198.322,258.6616 261.162,258.6616 C323.475,258.6616 374.068,308.7526 374.903,370.8606 C374.915,371.3866 374.928,371.9136 374.928,372.4396 C374.928,372.9656 374.915,373.4926 374.903,374.0186" id="Stroke-7" stroke="#FFFFFF" stroke-width="19"></path>
            <path d="M374.9338,372.4376 C374.9338,406.2546 347.5198,433.6686 313.7028,433.6686 C279.8848,433.6686 252.4708,406.2546 252.4708,372.4376 C252.4708,338.6206 279.8848,311.2066 313.7028,311.2066 C347.5198,311.2066 374.9338,338.6206 374.9338,372.4376" id="Fill-9" fill="#FFFFFF"></path>
            <path d="M374.9338,372.4376 C374.9338,406.2546 347.5198,433.6686 313.7028,433.6686 C279.8848,433.6686 252.4708,406.2546 252.4708,372.4376 C252.4708,338.6206 279.8848,311.2066 313.7028,311.2066 C347.5198,311.2066 374.9338,338.6206 374.9338,372.4376 Z" id="Stroke-11" stroke="#FFFFFF" stroke-width="19"></path>
            <path d="M148.5256,352.6984 C147.7686,348.4494 147.3826,344.0714 147.3826,339.6174 L147.3826,161.3694 C147.3826,119.6214 181.5446,85.4734 223.2786,85.4734 C244.1526,85.4734 263.1266,94.0114 276.8756,107.7604 C290.6366,121.5214 299.1736,140.4954 299.1736,161.3694 L299.1736,208.9314" id="Stroke-13" stroke="#FFFFFF" stroke-width="19"></path>
            <path d="M198.2004,128.9933 L198.2004,128.9933 C193.6114,128.9933 189.8574,125.2393 189.8574,120.6503 L189.8574,81.9993 C189.8574,77.4113 193.6114,73.6573 198.2004,73.6573 C202.7884,73.6573 206.5434,77.4113 206.5434,81.9993 L206.5434,120.6503 C206.5434,125.2393 202.7884,128.9933 198.2004,128.9933" id="Fill-15" fill="#97D700"></path>
            <path d="M244.1281,128.9933 L244.1281,128.9933 C239.5401,128.9933 235.7861,125.2393 235.7861,120.6503 L235.7861,81.9993 C235.7861,77.4113 239.5401,73.6573 244.1281,73.6573 C248.7171,73.6573 252.4711,77.4113 252.4711,81.9993 L252.4711,120.6503 C252.4711,125.2393 248.7171,128.9933 244.1281,128.9933" id="Fill-17" fill="#97D700"></path>
        </g>
    </g>
</svg>