<svg id="图层_1" data-name="图层 1" xmlns="http://www.w3.org/2000/svg" xmlns:xlink="http://www.w3.org/1999/xlink" viewBox="0 0 1705 599"><defs><style>.cls-1,.cls-2{fill:none;}.cls-1{clip-rule:evenodd;}.cls-3{clip-path:url(#clip-path);}.cls-4{clip-path:url(#clip-path-2);}.cls-5{fill:#fff;}.cls-6{clip-path:url(#clip-path-3);}.cls-7{clip-path:url(#clip-path-5);}.cls-8{clip-path:url(#clip-path-7);}.cls-9{clip-path:url(#clip-path-9);}</style><clipPath id="clip-path"><path class="cls-1" d="M1610.15,308.28c0,111.29-90.21,201.5-201.5,201.5s-201.5-90.21-201.5-201.5,90.22-201.5,201.5-201.5,201.5,90.22,201.5,201.5"/></clipPath><clipPath id="clip-path-2"><rect class="cls-2" x="-2435.85" y="-1616.22" width="15953" height="10792"/></clipPath><clipPath id="clip-path-3"><polygon class="cls-1" points="302.15 307.78 92.15 106.78 512.15 106.78 302.15 307.78"/></clipPath><clipPath id="clip-path-5"><polygon class="cls-1" points="302.15 306.78 92.15 506.78 512.15 506.78 302.15 306.78"/></clipPath><clipPath id="clip-path-7"><polygon class="cls-1" points="975.15 106.78 744.15 506.78 1206.15 506.78 975.15 106.78"/></clipPath><clipPath id="clip-path-9"><rect class="cls-2" x="524.15" y="106.78" width="208" height="400"/></clipPath></defs><g class="cls-3"><g class="cls-4"><rect class="cls-5" x="1206.15" y="105.78" width="405" height="405"/></g></g><g class="cls-6"><g class="cls-4"><rect class="cls-5" x="91.15" y="105.78" width="422" height="203"/></g></g><g class="cls-7"><g class="cls-4"><rect class="cls-5" x="91.15" y="305.78" width="422" height="202"/></g></g><g class="cls-8"><g class="cls-4"><rect class="cls-5" x="743.15" y="105.78" width="464" height="402"/></g></g><g class="cls-9"><rect class="cls-5" x="523.15" y="105.78" width="210" height="402"/></g></svg>